<svg xmlns="http://www.w3.org/2000/svg" width="533.333" height="533.333" viewBox="-204.8 -341.333 788.859 1365.333"><path fill="#1877f2" d="M872.296 341.334c0-377.027-305.64-682.667-682.666-682.667s-682.667 305.64-682.667 682.667c0 340.738 249.641 623.16 576 674.373v-477.04H-90.37V341.334H82.963v-150.4c0-171.094 101.917-265.6 257.853-265.6 74.69 0 152.814 13.333 152.814 13.333v168h-86.083c-84.804 0-111.25 52.623-111.25 106.61v128.057H485.63l-30.267 197.333H296.296v477.04c326.36-51.213 576-333.635 576-674.373"/><path fill="#fff" d="m455.363 538.667 30.267-197.333H296.296V213.276c0-53.986 26.447-106.61 111.251-106.61h86.083v-168s-78.124-13.332-152.814-13.332c-155.936 0-257.853 94.506-257.853 265.6v150.4H-90.37v197.333H82.963v477.04A688 688 0 0 0 189.63 1024c36.288 0 71.91-2.84 106.666-8.293v-477.04z"/></svg>