<svg xmlns="http://www.w3.org/2000/svg" xml:space="preserve" width="43.439" height="42.366" viewBox="0 0 43.439 42.366"><path d="M152.608 444.545c-8.994 0-16.288-7.293-16.288-16.29 0-7.196 4.667-13.302 11.14-15.457.815-.149 1.112.354 1.112.786 0 .387-.014 1.411-.022 2.77-4.531-.984-5.487 2.184-5.487 2.184-.741 1.882-1.809 2.383-1.809 2.383-1.479 1.01.112.99.112.99 1.635-.115 2.495-1.679 2.495-1.679 1.453-2.489 3.813-1.77 4.741-1.353.148 1.052.569 1.77 1.034 2.177-3.617.412-7.42 1.809-7.42 8.051 0 1.779.635 3.232 1.677 4.371-.168.412-.727 2.068.16 4.311 0 0 1.367.438 4.479-1.669 1.299.361 2.693.541 4.078.548a15.7 15.7 0 0 0 4.078-.548c3.11 2.107 4.475 1.669 4.475 1.669.889-2.243.33-3.899.163-4.311 1.044-1.139 1.674-2.592 1.674-4.371 0-6.258-3.809-7.635-7.437-8.038.584-.503 1.105-1.497 1.105-3.017 0-2.177-.02-3.934-.02-4.468 0-.436.294-.943 1.12-.784 6.468 2.159 11.131 8.26 11.131 15.455 0 8.997-7.294 16.29-16.291 16.29" style="fill:#1b1817;fill-opacity:1;fill-rule:evenodd;stroke:none;stroke-width:.1" transform="matrix(1.33333 0 0 -1.33333 -181.76 592.727)"/></svg>