<svg xmlns="http://www.w3.org/2000/svg" width="100" height="75" viewBox="0 0 100 75"><path d="M0 0h100v75H0z" style="fill:none;stroke:none;stroke-width:.09575499"/><path d="M61.502 714.77a29.764 29.764 0 0 0-28.506 26.886h1.95a27.63 27.63 0 0 1 7.929-16.687 20.6 20.6 0 0 0 3.271 2.46c-2.153 4.168-3.47 9.051-3.83 14.227h.48c.37-5.194 1.715-9.981 3.77-13.976 2.636 1.537 5.746 2.671 9.125 3.329-.57 4.058-.877 8.602-.887 13.324h-3v.478h3c.01 4.721.316 9.265.887 13.324-3.379.657-6.49 1.792-9.125 3.329-1.67-3.248-2.872-7.02-3.462-11.108h-.487c.58 4.108 1.779 7.97 3.53 11.358a20.6 20.6 0 0 0-3.272 2.46 27.63 27.63 0 0 1-7.983-17.26H32.94a29.764 29.764 0 0 0 59.413-2.388 29.7 29.7 0 0 0-2.435-11.802 29.76 29.76 0 0 0-28.415-17.954m1.115 1.934q.827 0 1.645.049c1.29 1.203 2.507 3.786 3.48 7.485a59 59 0 0 1 1.263 6.34 36 36 0 0 1-6.388.565 36 36 0 0 1-6.388-.565 59 59 0 0 1 1.263-6.34c.973-3.698 2.19-6.282 3.48-7.485q.818-.049 1.645-.05m-2.354.1c-1.22 1.39-2.328 3.871-3.233 7.312a59 59 0 0 0-1.27 6.374c-3.327-.649-6.384-1.766-8.971-3.28 2.43-4.544 5.789-8.015 9.668-9.826a28 28 0 0 1 3.806-.58m4.708 0a28 28 0 0 1 3.84.596c3.865 1.815 7.212 5.28 9.634 9.81-2.586 1.514-5.644 2.631-8.97 3.28a59 59 0 0 0-1.27-6.374c-.906-3.44-2.013-5.922-3.234-7.312m-10.521 1.112c-2.318 1.439-4.449 3.5-6.288 6.123a29 29 0 0 0-1.792 2.921 20 20 0 0 1-3.155-2.372 27.7 27.7 0 0 1 11.235-6.672m16.37.022a27.84 27.84 0 0 1 11.205 6.645 20 20 0 0 1-3.16 2.377 29 29 0 0 0-1.793-2.92c-1.83-2.611-3.947-4.664-6.252-6.102m11.544 7.026a27.8 27.8 0 0 1 5.798 8.565 27.6 27.6 0 0 1 2.275 10.804H83.02c-.035-6.163-1.411-12.024-3.932-16.904a20.6 20.6 0 0 0 3.276-2.465m-3.696 2.716c2.404 4.673 3.838 10.428 3.874 16.653H70.43c-.01-4.722-.316-9.266-.887-13.324 3.379-.658 6.489-1.792 9.125-3.33m-22.507 3.416a36.5 36.5 0 0 0 6.456.57 36.5 36.5 0 0 0 6.456-.57c.566 4.03.87 8.544.88 13.237h-4.17a3.6 3.6 0 0 1-.33.478h4.5c-.01 4.692-.315 9.206-.88 13.236a36.8 36.8 0 0 0-12.913 0c-.564-4.03-.868-8.544-.878-13.236h4.58a3.5 3.5 0 0 1-.32-.478h-4.26c.01-4.693.314-9.207.879-13.237m-23.319 12.472a30 30 0 0 0 .023 1.434h1.941l-.009-.191h7.417q.011 1.838.18 3.633h.481a41 41 0 0 1-.182-3.633h7.2v-.478h-7.2q.002-.383.012-.765h-.478q-.01.382-.013.765h-7.417a28 28 0 0 1 .043-.765zm29.534.765.05.028-.088.45h.633l-.088-.45.05-.028zm8.054.478h12.112c-.036 6.224-1.47 11.98-3.874 16.653-2.636-1.537-5.746-2.672-9.124-3.33.57-4.057.877-8.602.886-13.323m12.59 0h7.417a27.63 27.63 0 0 1-8.077 19.364 20.6 20.6 0 0 0-3.272-2.46c2.52-4.88 3.897-10.741 3.932-16.904M63.478 757.92a36.4 36.4 0 0 1 5.527.554 59 59 0 0 1-1.263 6.34c-.973 3.699-2.189 6.282-3.48 7.485q-.818.049-1.645.05-.827-.001-1.645-.05c-1.291-1.203-2.507-3.786-3.48-7.484a59 59 0 0 1-1.263-6.34 36.4 36.4 0 0 1 7.25-.555m5.997.643c3.326.649 6.384 1.766 8.97 3.279-2.429 4.544-5.789 8.016-9.668 9.826a28 28 0 0 1-3.806.582c1.22-1.39 2.328-3.872 3.234-7.313a59 59 0 0 0 1.27-6.374m-13.716 0a59 59 0 0 0 1.27 6.374c.906 3.441 2.013 5.923 3.234 7.313a28 28 0 0 1-3.806-.582c-3.88-1.81-7.24-5.282-9.669-9.826 2.587-1.513 5.645-2.63 8.971-3.28m-9.389 3.53a29 29 0 0 0 1.792 2.92c1.84 2.624 3.97 4.684 6.288 6.123a27.7 27.7 0 0 1-11.237-6.67 20 20 0 0 1 3.157-2.374m32.494 0a20 20 0 0 1 3.157 2.373 27.7 27.7 0 0 1-11.236 6.67c2.318-1.439 4.448-3.499 6.287-6.123a29 29 0 0 0 1.792-2.92" style="fill:#fff;stroke-width:.0956023" transform="translate(.12 -707.14)scale(1.00031)"/><path d="M49.188 742.612H25.472c-.839-4.58-5.058-7.98-9.945-7.467-4.314.453-7.71 3.947-8.108 8.267-.503 5.459 3.766 10.064 9.082 10.064 4.463 0 8.188-3.246 8.971-7.518h15.721v3.442h3.346v-3.442h2.964v5.067h3.346v-8.413zm-32.716 7.496a5.802 5.802 0 1 1 5.802-5.801 5.81 5.81 0 0 1-5.802 5.801" data-name="Path 22" style="fill:#fff;stroke-width:.0956023" transform="translate(.12 -707.14)scale(1.00031)"/><path d="M65.311 742.54a2.657 2.657 0 1 0-3.956 2.316l-1.357 6.934h5.313l-1.357-6.934a2.66 2.66 0 0 0 1.357-2.317" data-name="Path 24" style="fill:#fff;stroke-width:.0956023" transform="translate(.12 -707.14)scale(1.00031)"/></svg>